<svg id="Capa_1" data-name="Capa 1" xmlns="http://www.w3.org/2000/svg" viewBox="0 0 106.69 33.8"><defs><style>.cls-1{fill:#2196f3;}.cls-2{fill:#673ab7;}.cls-3{font-size:20.53px;font-family:Arial-BoldMT, Arial;font-weight:700;}</style></defs><path class="cls-1" d="M11,31.17A11.06,11.06,0,1,1,22,20.11,11,11,0,0,1,11,31.17Zm0-21.05a10,10,0,1,0,9.94,10A10,10,0,0,0,11,10.12Z"/><path class="cls-1" d="M19,20.61c-.34-1.28-3.47-1.42-5.34-.95-1,.25-2,.57-3,.75a5.07,5.07,0,0,0,2.72,1.47A7.19,7.19,0,0,0,19,20.61Z"/><path class="cls-2" d="M13.34,21.88a5.07,5.07,0,0,1-2.72-1.47c-1.17-1-2.21-2.17-4.24-1.75-3.24.68-3.67,4.53-1.17,7a8,8,0,0,0,4,2.27,7.85,7.85,0,0,0,4.55-.28,8,8,0,0,0,5.23-7A7.19,7.19,0,0,1,13.34,21.88Z"/><path class="cls-1" d="M15,13.54c-.4.87,3.2,1.84,3.63,4.73C18.87,15.42,15.53,12.46,15,13.54Z"/><path class="cls-2" d="M7.47,17.18a1.28,1.28,0,0,0,.68-1.68,1.27,1.27,0,0,0-1.66-.69,1.28,1.28,0,0,0,1,2.37Z"/><path class="cls-1" d="M10.35,13.66a.77.77,0,0,0,0-1.1.76.76,0,0,0-1.09,0,.77.77,0,0,0,0,1.1A.76.76,0,0,0,10.35,13.66Z"/><path class="cls-1" d="M13.1,8.63c1.12-3.33.37-6-1.94-7.27a4,4,0,0,0-3,2.16C11.22,3.26,13.18,5.21,13.1,8.63Z"/><path class="cls-1" d="M25.7,5.72c-5.56-2-9.07-1.32-9.62,3.25C19.26,12.28,22.47,10.7,25.7,5.72Z"/><path class="cls-1" d="M21.28,3.91A19.16,19.16,0,0,0,21.69,0c-5.77,1.29-8.37,3.76-6.41,7.92l.29.06C16,4.73,18.05,3.52,21.28,3.91Z"/><text class="cls-3" transform="translate(25.7 26.07)">MiPYME</text></svg>